<?xml version="1.0" encoding="UTF-8"?>
<svg xmlns="http://www.w3.org/2000/svg" width="1584" height="396" viewBox="0 0 1584 396" role="img" aria-label="LinkedIn banner: from hyperon masses to neutron stars">
  <defs>
    <pattern id="grid" width="24" height="24" patternUnits="userSpaceOnUse">
      <path d="M24 0H0V24" fill="none" stroke="#2b6a6e" stroke-opacity="0.12" stroke-width="1"/>
    </pattern>
    <linearGradient id="paper" x1="0" y1="0" x2="1" y2="1">
      <stop offset="0%" stop-color="#f6f1e7"/>
      <stop offset="55%" stop-color="#efe8da"/>
      <stop offset="100%" stop-color="#e7dfcd"/>
    </linearGradient>
  </defs>

  <rect width="1584" height="396" fill="url(#paper)"/>
  <rect width="1584" height="396" fill="url(#grid)"/>
  <rect x="0" y="0" width="420" height="396" fill="#f6f1e7" opacity="0.55"/>

  <g transform="translate(460,58)" fill="none" stroke="#1d1b16" stroke-width="1.6">
    <rect x="0" y="0" width="210" height="210"/>
    <g fill="#1d1b16" stroke="none">
      <rect x="18" y="18" width="16" height="16" opacity="0.08"/>
      <rect x="38" y="38" width="16" height="16" opacity="0.1"/>
      <rect x="58" y="58" width="16" height="16" opacity="0.12"/>
      <rect x="78" y="78" width="16" height="16" opacity="0.14"/>
      <rect x="98" y="48" width="16" height="16" opacity="0.1"/>
      <rect x="48" y="98" width="16" height="16" opacity="0.1"/>
      <rect x="118" y="68" width="16" height="16" opacity="0.09"/>
      <rect x="68" y="118" width="16" height="16" opacity="0.09"/>
      <rect x="88" y="88" width="34" height="34" fill="#b03f27" opacity="0.85"/>
      <rect x="78" y="98" width="16" height="16" fill="#b03f27" opacity="0.35"/>
      <rect x="108" y="78" width="16" height="16" fill="#b03f27" opacity="0.35"/>
    </g>
    <rect x="82" y="82" width="46" height="46" stroke="#b03f27" stroke-width="1.8"/>
    <text x="105" y="104" text-anchor="middle" fill="#8f321e" font-family="ui-monospace, Menlo, monospace" font-size="16" font-weight="600">&#x39B;&#x39B;</text>
    <text x="210" y="232" text-anchor="end" fill="#57513f" font-family="ui-monospace, Menlo, monospace" font-size="13">m(p&#x3C0;&#x207B;)&#x2081;</text>
    <text x="-14" y="105" text-anchor="middle" transform="rotate(-90 -14 105)" fill="#57513f" font-family="ui-monospace, Menlo, monospace" font-size="13">m(p&#x3C0;&#x207B;)&#x2082;</text>
  </g>

  <path d="M675 163 H760" fill="none" stroke="#b03f27" stroke-width="2" stroke-linecap="round"/>
  <path d="M760 163 l-10 -5 M760 163 l-10 5" fill="none" stroke="#b03f27" stroke-width="2" stroke-linecap="round"/>

  <g transform="translate(780,118)">
    <circle cx="28" cy="45" r="22" fill="#f6f1e7" stroke="#1d1b16" stroke-width="1.7"/>
    <circle cx="152" cy="45" r="22" fill="#f6f1e7" stroke="#1d1b16" stroke-width="1.7"/>
    <text x="28" y="51" text-anchor="middle" fill="#1d1b16" font-family="ui-monospace, Menlo, monospace" font-size="20">&#x39B;</text>
    <text x="152" y="51" text-anchor="middle" fill="#1d1b16" font-family="ui-monospace, Menlo, monospace" font-size="20">&#x39B;</text>
    <path d="M58 45 H94" fill="none" stroke="#b03f27" stroke-width="2.2" stroke-linecap="round"/>
    <path d="M94 45 l-8 -5 M94 45 l-8 5" fill="none" stroke="#b03f27" stroke-width="2.2"/>
    <path d="M122 45 H86" fill="none" stroke="#b03f27" stroke-width="2.2" stroke-linecap="round"/>
    <path d="M86 45 l8 -5 M86 45 l8 5" fill="none" stroke="#b03f27" stroke-width="2.2"/>
    <path d="M20 98 H160" stroke="#57513f" stroke-width="1.1" stroke-dasharray="4 3" fill="none"/>
    <path d="M34 98 C 58 98, 70 168, 90 170 C 110 172, 122 98, 146 98" fill="#b03f27" fill-opacity="0.22" stroke="none"/>
    <path d="M34 98 C 58 98, 70 168, 90 170 C 110 172, 122 98, 146 98" fill="none" stroke="#b03f27" stroke-width="2.1" stroke-linecap="round"/>
    <text x="90" y="148" text-anchor="middle" fill="#8f321e" font-family="ui-monospace, Menlo, monospace" font-size="12">&#x39B;&#x39B; attraction</text>
  </g>

  <path d="M980 163 H1068" fill="none" stroke="#1d1b16" stroke-width="1.5" stroke-linecap="round" opacity="0.7"/>
  <path d="M1068 163 l-9 -4.5 M1068 163 l-9 4.5" fill="none" stroke="#1d1b16" stroke-width="1.5" opacity="0.7"/>

  <g transform="translate(1088,78)" fill="none" stroke="#1d1b16" stroke-width="1.5">
    <rect x="0" y="0" width="220" height="170"/>
    <path d="M0 42 H220" stroke="#57513f" stroke-width="1.1" stroke-dasharray="4 3"/>
    <text x="8" y="34" fill="#57513f" font-family="ui-monospace, Menlo, monospace" font-size="12">2 M&#x2609;</text>
    <text x="-10" y="14" text-anchor="end" fill="#57513f" font-family="ui-monospace, Menlo, monospace" font-size="13">M</text>
    <text x="220" y="188" text-anchor="end" fill="#57513f" font-family="ui-monospace, Menlo, monospace" font-size="13">R</text>
    <path d="M22 150 C 55 140, 90 70, 120 28 C 145 8, 175 55, 205 95" stroke="#1d1b16" stroke-width="2"/>
    <path d="M30 155 C 70 145, 100 95, 130 78 C 155 68, 180 105, 208 135" stroke="#b03f27" stroke-width="2.1"/>
  </g>

  <!-- Two neutron-star sketches, kept inside the LinkedIn banner height -->
  <g transform="translate(1355,55)">
    <circle cx="55" cy="78" r="42" fill="#f6f1e7" stroke="#1d1b16" stroke-width="1.7"/>
    <path d="M55 43 A35 35 0 0 0 55 113 Z" fill="#b03f27" fill-opacity="0.75"/>
    <circle cx="55" cy="78" r="14" fill="none" stroke="#1d1b16" stroke-width="1.4"/>
    <path d="M55 78 H97" stroke="#1d1b16" stroke-width="1.3" stroke-linecap="round"/>

    <circle cx="120" cy="250" r="50" fill="#f6f1e7" stroke="#1d1b16" stroke-width="1.7"/>
    <path d="M120 208 A42 42 0 0 0 120 292 Z" fill="#b03f27" fill-opacity="0.55"/>
    <circle cx="120" cy="250" r="16" fill="none" stroke="#1d1b16" stroke-width="1.4"/>
    <path d="M120 250 H170" stroke="#1d1b16" stroke-width="1.3" stroke-linecap="round"/>
  </g>

  <text x="1548" y="372" text-anchor="end" fill="#6f6855" font-family="ui-monospace, Menlo, monospace" font-size="12">accelerator data &#x2192; dense matter</text>
</svg>
